<?xml version="1.0" encoding="UTF-8"?>
<svg id="Capa_1" data-name="Capa 1" xmlns="http://www.w3.org/2000/svg" viewBox="0 0 3925 939.93">
  <defs>
    <style>
      .cls-1 {
        fill: #fff;
        fill-rule: evenodd;
      }
    </style>
  </defs>
  <path id="Forma_13" data-name="Forma 13" class="cls-1" d="M3354.14,435.9c49.25-41.32,77.94,20.04,45.61,42.51-53.9,39.7-75.55-19.98-45.61-42.51ZM3923.84,290.24c-6.09,42.73-77.34,38.35-77.33,38.34-46.94-5.41-64.79-8.49-106.29-5.95-14.93.94-163.67,6.04-350.12,11.76-94.12,139.53-184.29,231.39-255.23,290.09-1.4,8.56-3.01,18.89-3.86,26.16,3.45,50.73,57.6,31.49,83.82,21.41,44.24-21.86,68.06-108.3,83.26-131.14,25.7-30.3,48.64-28.43,63.29-26.72s23.95,15.04,14.73,30.27c-14.49,20.04-48.01,81.82-56.9,104.48-12.99,64.38,102.44-5.86,142.55-21.49,18.23-7.18,40.42-13.61,49.25-11.71,14.03,7.91,4.91,17.09,4.91,17.09-7.39,3.96-14.78,7.93-22.16,11.9-.01-.11-122.98,55.75-162.08,71-55.33,20.85-71.28,5.22-78.17-4.06-12.95-15.46-18.73-8.11-30.03-3.03-118.83,50.7-148.56,10.15-151.22-36.94-38.24,25.99-65.76,39.27-78.22,44.79-82.58,37.39-111.8,14.73-120.55-16.8-9.61,6.4-16.48,10.45-20.11,12.38-104.78,48.27-124.8,1.6-128.81-16.85-15.84,9.83-31.3,16.83-44.4,20.71-120.35,37.56-121.78-17.21-129.54-32.79-7.22-16.03-21.51-5.55-36.07-.91-43.32,22.54-68.37,42.27-124.49,46.37-83.59,3.1-44.05-91.88-37.9-110.22,7.69-24.12-22.31-5-28.95-1-91.7,65.12-124.56,90.4-162.49,107.32-92.89,36.11-43.42-49.28-20.94-63.75,77.37-66.89,38.03-103.26,22.21-119.78-18.39-19.21,3.14-33.02,16.41-26.32,67.41,27.89,54.05,107.14,55.59,106.23,0,0,28.75-21.08,46.6-34.42,164.86-115.71,194.2-99.28,219.4-100.58,61.35,9.33-7.97,50.08-23,61-47.11,37.8-61.64,58.45-71.17,81.4-17.58,51.46,16.48,53.55,81.86,21.28,87.46-33.6,126.36-107.82,187.87-142.31,100.96-54.68,150.06,4.54,147.19,32.92.63,17.78-1.17,23.8-5.62,39.38-.07,1.37-.38,2.72-.9,3.99-11.62,33.02-17.79,43.32-26.97,61.1-38.92,86.51,70.92,22.01,80.92,10.29,28.68-153.66,90-230.98,120.59-282.87,6.91-9.13,13.64-17.91,20.2-26.33-223.8,6.75-418.27,13.39-442.48,12.54-56.1-1.48-61.82-7.78-61.61-18.3,3.54-17.93,36.56-18.13,65.93-17.85,149.28-2.83,312.5-9.5,471.14-17.66,149.91-181.56,199.3-167.31,215.05-166.57,36.83,7.48,28.29,26.76,22.11,49.5-18.47,38.01-37.48,73.63-56.72,107.02,9.73-.58,19.41-1.17,29.05-1.76,41.28-49.58,73.22-79.68,94.56-98.76,51.97-47.23,91.03-58.02,109-54,40.28,14.1,25.83,38.04,14,66-14.48,25.49-32.28,52.6-46.73,75.68,226.61-15.46,398.1-31.07,429.38-33.93,66.28-6,71.45,26.05,70.19,42.39h0ZM2696.68,550.5c-25.33,15.17-51.44,46.14-63.74,66.29,0-.06-50.79,76.46,34.82,55.72,30.09-12.51,83.43-22.89,99.81-105.34,1.7-13.08,1.76-60.95-70.89-16.67ZM3229.42,477.24c37.54-40.66,77.33-88.23,114.47-141.43-13.93.43-28,.86-42.22,1.29-28.58,34.83-60.8,80.39-91.65,138.6-1.06,2.27-3.06,6.01-3.06,6.01,0,0-16.61,34.5,22.46-4.47ZM2983,514.68c.02-.13-57.24,94.85-7.47,40.64,54.66-56.51,120.88-133.96,171.62-213.53l-50.16,1.52c-34.99,43.12-78.6,103.5-113.99,171.36ZM3180.92,283.79c14.37-29.45,11.4-41.79-23.89-7.17-3.87,3.37-11.88,11.36-22.7,23.2,13.11-.73,26.16-1.47,39.14-2.22,2.55-4.61,5.04-9.21,7.45-13.81ZM3197.08,340.28c-100.15,161.34-202.51,263.41-269.55,318.78-14.27,85.84,133.1-22.92,148.87-38.04,1.03-3.01,2.06-6,3.09-8.97,3.23-12.42,6.28-20.59,6.28-20.59.32.11.65.22.97.33,40.37-110.03,86.92-191.43,130.5-252.11l-20.16.61ZM3396.59,252.63c3.53-6.43,8.25-20.46-8.96-4.04-6.47,6.04-21.19,18.53-40.83,38.38,10.29-.67,20.49-1.34,30.6-2.01,6.55-10.59,12.95-21.37,19.19-32.32h0ZM2171.13,475.96c-53.22,40.87-74.19-18.75-44.65-41.8,48.65-42.21,76.61,18.58,44.65,41.8ZM2369.67,103.06c-55.47,22.43-128.24,83.59-209.84,171.68-81.49,87.64-225.95,285.48-313.83,404.35,4.79,4.3,19.96,9.86,30,11,24.03-1.28,57.83,12.24,162.67-119.25,17.69-26.2,35.77-48.69,35.77-48.69s23.75-23.39,36.1-8.75c4.62,5.61,13.37,11.69,2.45,33.5-7.67,14.07-152.24,220.34-264,196.9-8.79-2.15-23.57-5.14-39.46-11.92-111.32,153.41-214.12,300.33-289.04,408.04-75,108.02-122.11,176.85-124.04,181.29-8.97,13.36-16.81,14.06-24.69,13-14.39-5.55-5.37-23.81-5.37-23.8.01-.02,7.57-15.06,31.06-55.85,115.67-183.43,248.61-373.84,374.63-547.42-22.81-22.88-47.3-75.95-38.08-140.06,12.21-75.9,101.03-219.56,136.52-290.23,33.2-72.8,96.03-167.83,50.89-223.99-6.71-6.78-31.44-28.46-101.77,22.27-56.41,42.82-118.46,94.08-188.06,171.18-6.86,10-12.14,16.47-12.14,16.47s-9.9,11.87-19.15,5.56c-6.75-5.55-5.18-11.2-.93-20.21,4.65-9.34,21.22-29.74,21.22-29.73-.03.14,59.07-76.23,131.73-136.44,72.93-61.16,159.42-106.15,220.31-65.23,13.55,14.05,41.79,31.73,41.38,84.35,1.41,44.36-38.06,143.73-119,286-48.26,82.04-128.83,205.63-78,261,117.26-159.39,279.12-380.82,353.36-466.92,74.37-86.54,118.69-130.65,118.87-131.38,0,0,5.9-6.01,13.8-13.15,61.98-57.76,93.93-27.85,104.62-17.67,28.8,30.42,2.41,72.77-37.98,84.09h0ZM1609.11,534.09c-15.08,4.7-53.47,27.47-99.49,45-3.64,49.05-41.68,97.92-55.53,109.31-100.19,93.9-152.75,16.66-162.23-.97-12.54-24.67-30.73-6.78-41.86-1.34-33.65,21.69-78.8,41.92-96.12,44.21-82.08,7.01-30.96-74.31-16.83-109.91,18-41.87-7.13-21.77-15.05-18.3-38.46,28.12-78.43,58.7-120,94-52.2,46.3-58.72,38.53-74.06,39.97-42.66-16.31,1.38-58.26,33.26-105.22,70.21-96.54-17.31-27.43-34.84-14.62-168.83,135.35-171.81,117.93-219.15,116.11-83.65-38.42,27.81-176.26,55.93-213.32,37.51-55.37,117.43-14.98,63.48,43.26-7.34,6.79-3.44,2.81-24,21.49-20.39,18.51-26.82,21.32-59.93,65.63-48.55,67.61,10.29,39.17,24.22,28.7,41.86-28.25,117.9-86.52,162.29-121.8,126.55-97.65,152.74-50.18,141.96-25.97-21.52,56.93-20.59,72.15-5.16,59.76,99.3-76.21,110.02-90.61,152-91,54.71,9.88-14.66,130.61-27.35,152.6-12.72,22.11-5.3,26.57.09,24.4,69.08-24.53,119.59-94.75,155.86-135.39,64.77-63.33,88.64-52.22,118.02-44.26,21.88,14.61,34.29,31.74,40.18,49.65,37.96-13.74,75.57-29.58,95.66-34.47,27.57-9.28,38.37,12.17,8.65,22.48ZM1349.11,674.63c23.86,8.85,39.86,4.38,53.63-2.99,0,0,38.75-29.76,53.08-73.37-25.93,6.35-52.42,9.69-77.24,7.17-9.84-2.75-16.5-6.16-20.12-1.34-19.36,25.17-30.05,47.21-9.35,70.53ZM1397.85,556.09c-2.38,3.71-8.37,8.41.31,9.66,12.09,6.18,35.54,2.57,62.71-5.17-.08-1.25-.18-2.51-.31-3.77-2.56-11.76-22.47-35.63-62.71-.71ZM844.38,422.28c-27.69,22.43-.38,82.4,49.49,43.19,30.06-22.22-4.32-84.47-49.49-43.19ZM170.13,623.56c.06-.29-215.61,73.88-159.94-113.81,61.75-150.55,203.66-216.3,267.86-244.39,61.67-27.03,76.65,31.25,27.94,41.96-46.81,10.22-210.98,73.7-251.79,202.32-25.69,80.92,21.09,87.58,91.96,75.92,16.17-2.66,19.6-2.42,33.97-9.4,6.11-9.33,10.86-23.09,15.98-35.99,25.04-51.64,88.67-196.58,331.73-381.81C628.35,96.36,745.09,15.4,884.37,1.09c24.44,2.6,106.32-.95,57.22,88.44-18.91,28.24-72.15,103.64-176.25,194.84-104.18,91.51-259.22,198.84-483.38,298-30.06,8.34-35.67,34.6-28.12,52.54,5.39,12.8,26.47,17.36,41.16,12.17,76.69-12.3,299.39-151.55,305.94,24.57.07,21.03,1.34,21.48,13.95,20.19,9.8,2.24,20.82,16.46-1.97,35.87-12.69,14-27.25,16.87-35.81,69.2-11.99,40.99-88.32,311.79-229,462.65-30.15,32.38-96.36,107.79-205.92,83.92-13.98-5.53-94.86-30.9-8.02-172.21,45.4-81.97,175.44-236.66,337.29-365.82,20.61-18.47,37.97-34.33,46.53-91.37,4.78-25.54,24.9-94.32-47-77-50.34,12.5-97.03,38.61-167,58-63.49,20.19-140.98,20.33-133.87-71.54ZM477,871.09c-2.12,1.02-96.55,305.36-258.82,422.34-17.46,9.84-83.57,45.16-75.99-22.04,6.08-32.36,38.45-142.97,274.48-365.71,9.94-9.37,20.25-18.93,30.93-28.68,12.7-10.94,40.74-44.96,31.62-12.49-.9,2.14-1.64,4.33-2.21,6.58ZM303.92,535.12c.37-1.62,401.46-173.37,591.74-447.79,5.62-12.46,32.58-50.01-29.75-29.45-62.52,21.41-399.76,166.27-571.97,448.7-9.03,17.14-33.54,46.5,9.98,28.54Z"/>
</svg>