<?xml version="1.0" encoding="UTF-8"?>
<svg id="Capa_1" data-name="Capa 1" xmlns="http://www.w3.org/2000/svg" viewBox="0 0 1080 1080">
  <defs>
    <style>
      .cls-1 {
        fill: #fff;
        fill-rule: evenodd;
      }
    </style>
  </defs>
  <path class="cls-1" d="M865.02,0c-111.68,11.47-205.28,76.38-285.87,126.09-194.88,148.51-245.9,264.72-265.98,306.13-4.11,10.34-7.92,21.37-12.81,28.86-11.52,5.6-14.27,5.41-27.23,7.54-56.82,9.35-94.32,4.01-73.73-60.87,32.72-103.12,164.35-154.02,201.88-162.21,39.06-8.58,27.05-55.32-22.4-33.64-51.47,22.52-165.26,75.24-214.76,195.95-44.64,150.49,128.28,91.02,128.24,91.25-5.7,73.66,56.43,73.55,107.34,57.36,56.1-15.55,93.53-36.48,133.9-46.5,57.65-13.89,41.51,41.26,37.68,61.74-6.87,45.73-20.78,58.45-37.31,73.26-129.77,103.56-234.04,227.59-270.44,293.31-69.63,113.3-4.78,133.64,6.43,138.08,87.85,19.14,140.94-41.32,165.11-67.29,112.8-120.96,174-338.09,183.61-370.95,6.86-41.96,18.54-44.26,28.71-55.48,18.27-15.56,9.44-26.96,1.58-28.76-10.12,1.04-11.13.67-11.19-16.19-5.25-141.21-183.81-29.56-245.3-19.7-11.78,4.16-28.68.5-33-9.76-6.06-14.39-1.55-35.44,22.55-42.13,179.72-79.51,304.04-165.56,387.57-238.93,83.47-73.13,126.15-133.58,141.32-156.22C950.27-.76,884.62,2.08,865.02,0ZM540.17,692.28c-.72,1.71-1.32,3.48-1.78,5.28-1.7.81-77.41,244.83-207.52,338.63-14,7.89-67,36.21-60.93-17.67,4.88-25.95,30.83-114.63,220.07-293.22,7.97-7.51,16.24-15.18,24.8-23,10.18-8.77,32.67-36.05,25.35-10.01ZM874.08,69.14c-152.57,220.02-474.16,357.73-474.45,359.03-34.89,14.41-15.24-9.14-8-22.88C529.7,178.85,800.1,62.7,850.22,45.53c49.97-16.48,28.36,13.63,23.85,23.61Z"/>
</svg>