<?xml version="1.0" encoding="UTF-8"?>
<svg id="Capa_2" data-name="Capa 2" xmlns="http://www.w3.org/2000/svg" viewBox="0 0 1484.7 349.21">
  <defs>
    <style>
      .cls-1 {
        fill: #fff;
      }
    </style>
  </defs>
  <g id="Blanco">
    <g id="Capa_1-2" data-name="Capa 1-2">
      <g>
        <rect class="cls-1" x="0" width="95.42" height="345.1"/>
        <rect class="cls-1" x="106.5" width="95.42" height="345.1"/>
        <path class="cls-1" d="M866.08,40.1h-95.42v103.29c-15.19-39.92-59.5-60.14-130.12-60.14s-109.69,22.82-124.53,52.3v-56.36h-95.42v137.04c0,32.99-11.16,43.65-54.82,43.65s-57.36-11.16-57.36-46.7V79.18h-95.42v169.02h0c0,55.32,35.52,96.94,105.06,96.94s97.96-40.09,103.54-82.73h5.07v82.73h89.33v-73.45c8.36,48.93,55.59,77.52,137.21,77.52,66.82,0,110.61-21.45,126.16-53.91,14.67,33.76,47.28,49.8,93.3,49.8h67v-85.78h-45.68c-21.83,0-27.92-5.07-27.92-25.37v-76.61h73.6v-78.16h-73.6v-39.08ZM653.73,274.09c-34.52,0-43.65-1.53-43.65-15.74v-5.07h-94.07v-52.22c11.61,22.64,36.66,36.11,73.78,40.04l74.1,8.12c23.86,2.54,27.92,4.57,27.92,12.69,0,8.62-3.55,12.18-38.07,12.18ZM687.22,190.86l-50.76-5.59c-29.95-3.04-34.01-6.6-34.01-13.71,0-9.65,4.06-13.71,35.02-13.71,38.58,0,43.65,6.09,43.65,19.28v3.04h89.52v41.54c-14.46-16.01-40.57-26.21-83.43-30.87Z"/>
        <path class="cls-1" d="M1352.23,79.19c-77.27,0-130.8,34.6-141.62,90.17v-1.84c0-51.27-22.34-88.32-78.67-88.32-50.75,0-77.15,29.95-84.25,72.07h-5.07v-72.07h-89.32v265.93h95.41v-157.81c0-20.3,8.63-27.92,33.5-27.92s32.99,7.62,32.99,28.93v29.95h95.42v-26.41h93.4v-2.03c0-21.31,9.64-27.4,41.11-27.4,34.01,0,45.17,4.06,45.17,29.95v5.07l-104.05,10.15c-57.86,5.59-82.79,28.47-82.79,64.5l.06,3.21c0,43.65,35.01,69.83,90.34,69.83s86.79-22.84,96.44-58.88h5.07v58.84h89.33v-150.71c0-71.56-45.68-115.21-132.47-115.21ZM1322.29,278.66c-14.72,0-22.84-1.53-22.84-9.65,0-5.59,3.55-8.63,12.18-9.65l78.16-9.13c-2.54,22.84-21.32,28.43-67.5,28.43Z"/>
      </g>
    </g>
  </g>
</svg>